<svg xmlns="http://www.w3.org/2000/svg" aria-hidden="true" style="width:0;height:0;position:absolute;overflow:hidden"><defs><symbol id="icon-uil_cart-1" viewBox="0 0 32 32"><path fill="#fff" d="M25.333 9.333h-4V8a5.332 5.332 0 1 0-10.666 0v1.333h-4a1.335 1.335 0 0 0-1.334 1.334v14.667a4.003 4.003 0 0 0 4 4h13.333a4.003 4.003 0 0 0 4-4V10.667a1.333 1.333 0 0 0-1.333-1.334zM13.333 8a2.668 2.668 0 0 1 5.334 0v1.333h-5.333V8zM24 25.333a1.335 1.335 0 0 1-1.334 1.334H9.333a1.335 1.335 0 0 1-1.334-1.334V12h2.667v1.333a1.335 1.335 0 0 0 2.277.943c.25-.251.391-.589.391-.943V12h5.333v1.333a1.335 1.335 0 0 0 2.277.943c.25-.251.391-.589.391-.943V12h2.667v13.333z" style="fill:var(--color1,#fff)"/></symbol><symbol id="icon-x-close-1" viewBox="0 0 32 32"><path fill="#4f2ee8" stroke="#4f2ee8" stroke-linecap="round" stroke-linejoin="round" stroke-width="3.333" d="M24 8 8 24M8 8l16 16" style="stroke:var(--color1,#fff)"/></symbol><symbol id="icon-align-left-1" viewBox="0 0 32 32"><path fill="#fff" stroke="#fff" stroke-linecap="round" stroke-linejoin="round" stroke-width="2.286" d="M22.667 13.333H4M28 8H4m24 10.667H4M22.667 24H4" style="stroke:var(--color1,#fff)"/></symbol><symbol id="icon-ri_user-fill" viewBox="0 0 32 32"><path fill="#4f2ee8" d="M5.333 29.333a10.666 10.666 0 0 1 21.332 0H5.332zm10.667-12c-4.42 0-8-3.58-8-8s3.58-8 8-8 8 3.58 8 8-3.58 8-8 8z" style="fill:var(--color2,#4f2ee8)"/></symbol><symbol id="icon-fi-ss-caret-down" viewBox="0 0 32 32"><path fill="#fff" d="M7.744 12h16.513l-7.423 8.391c-.221.25-.521.39-.834.39s-.613-.14-.834-.39L7.744 12z" style="fill:var(--color1,#fff)"/></symbol><symbol id="icon-uil_cart" viewBox="0 0 32 32"><path d="M25.333 9.333h-4V8a5.332 5.332 0 1 0-10.666 0v1.333h-4a1.335 1.335 0 0 0-1.334 1.334v14.667a4.003 4.003 0 0 0 4 4h13.333a4.003 4.003 0 0 0 4-4V10.667a1.335 1.335 0 0 0-1.334-1.334zM13.333 8a2.668 2.668 0 0 1 5.334 0v1.333h-5.333V8zM24 25.333a1.335 1.335 0 0 1-1.334 1.334H9.333a1.335 1.335 0 0 1-1.334-1.334V12h2.667v1.333a1.335 1.335 0 0 0 2.277.943c.25-.251.391-.589.391-.943V12h5.333v1.333a1.333 1.333 0 1 0 2.667 0V12h2.667v13.333z"/></symbol><symbol id="icon-logo" viewBox="0 0 32 32"><path fill="#f6f6f6" d="m0 0 16.343 16.171L32 32V0H0z" style="fill:var(--color3,#f6f6f6)"/><path fill="#f6f6f6" d="M4.457 4.229 16.4 16.058l11.257 11.486h-23.2V4.23z" style="fill:var(--color3,#f6f6f6)"/><path fill="#4f2ee8" d="M27.733 27.618 15.79 15.789 4.533 4.303h23.2v23.314z" style="fill:var(--color2,#4f2ee8)"/><path fill="#4f2ee8" d="m9.257 9.029 13.6 13.6h-13.6v-13.6z" style="fill:var(--color2,#4f2ee8)"/><path fill="#f6f6f6" d="m9.257 9.029 13.6 13.6v-13.6h-13.6z" style="fill:var(--color3,#f6f6f6)"/></symbol><symbol id="icon-arrow-narrow-right" viewBox="0 0 32 32"><path fill="none" stroke="#eac645" stroke-linecap="round" stroke-linejoin="round" stroke-width="3.2" d="M5.333 16h21.333m.001 0-8-8m8 8-8 8" style="stroke:var(--color4,#eac645)"/></symbol><symbol id="icon-dump" viewBox="0 0 32 32"><path fill="#4f2ee8" d="M32 16c0 8.837-7.163 16-16 16S0 24.837 0 16 7.163 0 16 0s16 7.163 16 16z" style="fill:var(--color2,#4f2ee8)"/><path fill="none" stroke="#fff" stroke-linecap="round" stroke-linejoin="round" stroke-width="1.684" d="M13.684 9.053h4.632m-9.263 2.315h13.895m-1.544 0-.541 8.12c-.081 1.218-.122 1.827-.385 2.289a2.322 2.322 0 0 1-1.002.938c-.478.232-1.089.232-2.31.232h-2.33c-1.221 0-1.832 0-2.31-.232a2.31 2.31 0 0 1-1.002-.938c-.263-.462-.304-1.071-.385-2.289l-.541-8.12m3.858 3.474v3.86m3.088-3.86v3.86" style="stroke:var(--color1,#fff)"/></symbol><symbol id="icon-user" viewBox="0 0 32 32"><path fill="#f6f6f6" d="M32 16c0 8.837-7.163 16-16 16S0 24.837 0 16 7.163 0 16 0s16 7.163 16 16z" style="fill:var(--color3,#f6f6f6)"/><path fill="#4f2ee8" d="M10.523 22.847a5.477 5.477 0 1 1 10.954 0H10.522zM16 16.685c-2.27 0-4.108-1.838-4.108-4.108S13.73 8.469 16 8.469c2.27 0 4.108 1.838 4.108 4.108S18.27 16.685 16 16.685z" style="fill:var(--color2,#4f2ee8)"/></symbol><symbol id="icon-x-close" viewBox="0 0 32 32"><path stroke-linecap="round" stroke-linejoin="round" stroke-width="3.333" d="M24 8 8 24M8 8l16 16"/></symbol><symbol id="icon-Bookshelf-1" viewBox="0 0 178 32"><path d="M33.218 9.764c0-3.951-2.921-6.184-7.971-6.184H14.699v24.567h11.132c5.085 0 8.349-2.44 8.349-7.181 0-3.676-2.199-5.566-4.776-6.013v-.069c2.027-.687 3.814-2.096 3.814-5.119zm-14.43 3.986v-6.7h6.563c2.44 0 3.779 1.202 3.779 3.367s-1.099 3.333-4.02 3.333h-6.322zm0 3.058h7.181c2.577 0 4.123 1.409 4.123 3.917 0 2.302-1.065 3.951-4.57 3.951h-6.734v-7.868zm25.883 11.853c-5.497 0-8.83-3.814-8.83-9.277s3.333-9.277 8.83-9.277 8.83 3.814 8.83 9.277-3.333 9.277-8.83 9.277zm0-2.955c3.436 0 5.222-2.714 5.222-6.322 0-3.642-1.787-6.322-5.222-6.322s-5.222 2.68-5.222 6.322c0 3.608 1.787 6.322 5.222 6.322zm19.226 2.955c-5.497 0-8.83-3.814-8.83-9.277s3.333-9.277 8.83-9.277 8.83 3.814 8.83 9.277-3.333 9.277-8.83 9.277zm0-2.955c3.436 0 5.222-2.714 5.222-6.322 0-3.642-1.787-6.322-5.222-6.322s-5.222 2.68-5.222 6.322c0 3.608 1.787 6.322 5.222 6.322zM75.22 3.579v24.567h3.608V21.79l2.44-2.302 5.532 8.658h4.329l-7.387-11.029 6.665-6.528h-4.432l-7.147 7.044V3.58H75.22zm24.605 13.95c-2.543-.584-4.501-.721-4.501-2.508 0-1.237 1.168-2.061 3.333-2.061 2.817 0 3.505 1.409 3.745 2.783h3.505c-.24-3.058-2.508-5.635-7.284-5.635-4.398 0-6.941 2.302-6.941 5.188 0 3.986 3.779 4.535 6.563 5.188 2.577.618 4.673.79 4.673 2.989 0 1.099-1.065 2.336-3.573 2.336-3.711 0-4.535-1.615-4.707-3.505h-3.505c.172 3.711 2.611 6.356 8.28 6.356 4.26 0 7.147-2.096 7.147-5.463 0-4.192-3.505-4.913-6.734-5.669zm18.53-7.422c-2.955 0-4.776 1.374-5.703 2.749h-.069V3.579h-3.608v24.566h3.608V17.46c0-2.611 1.89-4.295 4.535-4.295 2.508 0 3.505 1.512 3.505 3.883v11.098h3.642V16.017c0-4.02-2.577-5.91-5.91-5.91zm16.973 15.599c-3.195 0-5.085-2.44-5.085-5.394h13.469c0-6.253-2.783-10.204-8.452-10.204-5.291 0-8.624 3.573-8.624 9.277 0 5.497 3.333 9.277 8.796 9.277 4.501 0 7.112-2.543 8.006-5.875h-3.608c-.309 1.065-1.512 2.921-4.501 2.921zm-.068-12.747c2.921 0 4.845 1.958 4.845 4.673h-9.861c0-2.714 2.096-4.673 5.016-4.673zm10.994-9.38v24.567h3.642V3.579h-3.642zm15.426 2.955V3.579a12.692 12.692 0 0 0-2.405-.24c-2.886 0-4.467 1.306-4.467 5.016v2.233H152.3v2.955h2.508v14.602h3.642V13.543h3.23v-2.955h-3.23V8.664c0-1.993.893-2.233 3.23-2.13z"/></symbol><symbol id="icon-Bookshelf" viewBox="0 0 178 32"><path d="M33.218 9.764c0-3.951-2.921-6.184-7.971-6.184H14.699v24.567h11.132c5.085 0 8.349-2.44 8.349-7.181 0-3.676-2.199-5.566-4.776-6.013v-.069c2.027-.687 3.814-2.096 3.814-5.119zm-14.43 3.986v-6.7h6.563c2.44 0 3.779 1.202 3.779 3.367s-1.099 3.333-4.02 3.333h-6.322zm0 3.058h7.181c2.577 0 4.123 1.409 4.123 3.917 0 2.302-1.065 3.951-4.57 3.951h-6.734v-7.868zm25.883 11.853c-5.497 0-8.83-3.814-8.83-9.277s3.333-9.277 8.83-9.277 8.83 3.814 8.83 9.277-3.333 9.277-8.83 9.277zm0-2.955c3.436 0 5.222-2.714 5.222-6.322 0-3.642-1.787-6.322-5.222-6.322s-5.222 2.68-5.222 6.322c0 3.608 1.787 6.322 5.222 6.322zm19.225 2.955c-5.497 0-8.83-3.814-8.83-9.277s3.333-9.277 8.83-9.277 8.83 3.814 8.83 9.277-3.333 9.277-8.83 9.277zm0-2.955c3.436 0 5.222-2.714 5.222-6.322 0-3.642-1.787-6.322-5.222-6.322s-5.222 2.68-5.222 6.322c0 3.608 1.787 6.322 5.222 6.322zM75.22 3.579v24.567h3.608V21.79l2.44-2.302 5.532 8.658h4.329l-7.387-11.029 6.665-6.528h-4.432l-7.147 7.044V3.58H75.22zm24.605 13.95c-2.543-.584-4.501-.721-4.501-2.508 0-1.237 1.168-2.061 3.333-2.061 2.817 0 3.505 1.409 3.745 2.783h3.505c-.24-3.058-2.508-5.635-7.284-5.635-4.398 0-6.941 2.302-6.941 5.188 0 3.986 3.779 4.535 6.563 5.188 2.577.618 4.673.79 4.673 2.989 0 1.099-1.065 2.336-3.573 2.336-3.711 0-4.535-1.615-4.707-3.505h-3.505c.172 3.711 2.611 6.356 8.28 6.356 4.26 0 7.147-2.096 7.147-5.463 0-4.192-3.505-4.913-6.734-5.669zm18.53-7.422c-2.955 0-4.776 1.374-5.703 2.749h-.069V3.579h-3.608v24.567h3.608V17.461c0-2.611 1.89-4.295 4.535-4.295 2.508 0 3.505 1.512 3.505 3.883v11.098h3.642V16.018c0-4.02-2.577-5.91-5.91-5.91zm16.973 15.599c-3.195 0-5.085-2.44-5.085-5.394h13.469c0-6.253-2.783-10.204-8.452-10.204-5.291 0-8.624 3.573-8.624 9.277 0 5.497 3.333 9.277 8.796 9.277 4.501 0 7.112-2.543 8.006-5.875h-3.608c-.309 1.065-1.512 2.921-4.501 2.921zm-.068-12.747c2.921 0 4.845 1.959 4.845 4.673h-9.861c0-2.714 2.096-4.673 5.016-4.673zm10.994-9.38v24.567h3.642V3.579h-3.642zm15.426 2.955V3.579a12.692 12.692 0 0 0-2.405-.24c-2.886 0-4.467 1.306-4.467 5.016v2.233H152.3v2.955h2.508v14.602h3.642V13.543h3.23v-2.955h-3.23V8.664c0-1.993.893-2.233 3.23-2.13z"/></symbol><symbol id="icon-align-left" viewBox="0 0 32 32"><path stroke-linecap="round" stroke-linejoin="round" stroke-width="2.286" d="M22.667 13.333H4M28 8H4m24 10.667H4M22.667 24H4"/></symbol></defs></svg>